<svg width="375" height="702" viewBox="0 0 375 702" fill="none" xmlns="http://www.w3.org/2000/svg">
<defs>
<filter id="filter0_d_4_23" x="-162" y="384" width="460" height="460" filterUnits="userSpaceOnUse" color-interpolation-filters="sRGB">
<feFlood flood-opacity="0" result="BackgroundImageFix"/>
<feColorMatrix in="SourceAlpha" type="matrix" values="0 0 0 0 0 0 0 0 0 0 0 0 0 0 0 0 0 0 127 0" result="hardAlpha"/>
<feOffset dy="4"/>
<feGaussianBlur stdDeviation="2"/>
<feComposite in2="hardAlpha" operator="out"/>
<feColorMatrix type="matrix" values="0 0 0 0 0 0 0 0 0 0 0 0 0 0 0 0 0 0 0.25 0"/>
<feBlend mode="normal" in2="BackgroundImageFix" result="effect1_dropShadow_4_23"/>
<feBlend mode="normal" in="SourceGraphic" in2="effect1_dropShadow_4_23" result="shape"/>
</filter>
<filter id="filter1_d_4_23" x="125" y="371" width="405" height="408" filterUnits="userSpaceOnUse" color-interpolation-filters="sRGB">
<feFlood flood-opacity="0" result="BackgroundImageFix"/>
<feColorMatrix in="SourceAlpha" type="matrix" values="0 0 0 0 0 0 0 0 0 0 0 0 0 0 0 0 0 0 127 0" result="hardAlpha"/>
<feMorphology radius="2" operator="dilate" in="SourceAlpha" result="effect1_dropShadow_4_23"/>
<feOffset dx="-5" dy="7"/>
<feComposite in2="hardAlpha" operator="out"/>
<feColorMatrix type="matrix" values="0 0 0 0 0 0 0 0 0 0 0 0 0 0 0 0 0 0 0.4 0"/>
<feBlend mode="normal" in2="BackgroundImageFix" result="effect1_dropShadow_4_23"/>
<feBlend mode="normal" in="SourceGraphic" in2="effect1_dropShadow_4_23" result="shape"/>
</filter>
<linearGradient id="paint0_linear_4_23" x1="68" y1="384" x2="68" y2="836" gradientUnits="userSpaceOnUse">
<stop stop-color="#7D00A9"/>
<stop offset="1"/>
</linearGradient>
<linearGradient id="paint1_linear_4_23" x1="394" y1="436.5" x2="331" y2="770" gradientUnits="userSpaceOnUse">
<stop stop-color="#7D00A9"/>
<stop offset="1"/>
</linearGradient>
</defs>
<path d="M75.5562 24.7064C81.4279 24.7064 86.5104 25.685 90.8037 27.6422C95.1602 29.5995 98.5064 32.3775 100.843 35.9763C103.179 39.5751 104.347 43.8368 104.347 48.7615C104.347 53.623 103.179 57.8847 100.843 61.5467C98.5064 65.1455 95.1602 67.9235 90.8037 69.8807C86.5104 71.7748 81.4279 72.7219 75.5562 72.7219H62.2028V91H46.8605V24.7064H75.5562ZM74.7039 60.2208C79.3128 60.2208 82.8169 59.2422 85.2161 57.2849C87.6153 55.2646 88.8149 52.4234 88.8149 48.7615C88.8149 45.0364 87.6153 42.1953 85.2161 40.238C82.8169 38.2176 79.3128 37.2074 74.7039 37.2074H62.2028V60.2208H74.7039ZM129.389 92.1365C122.507 92.1365 116.288 90.6527 110.732 87.6853C105.239 84.7179 100.914 80.6456 97.7572 75.4683C94.6635 70.228 93.1166 64.3563 93.1166 57.8532C93.1166 51.3501 94.6635 45.5099 97.7572 40.3327C100.914 35.0924 105.239 30.9885 110.732 28.021C116.288 25.0536 122.507 23.5699 129.389 23.5699C136.271 23.5699 142.458 25.0536 147.951 28.021C153.444 30.9885 157.769 35.0924 160.926 40.3327C164.082 45.5099 165.661 51.3501 165.661 57.8532C165.661 64.3563 164.082 70.228 160.926 75.4683C157.769 80.6456 153.444 84.7179 147.951 87.6853C142.458 90.6527 136.271 92.1365 129.389 92.1365ZM129.389 79.0671C133.303 79.0671 136.839 78.1832 139.996 76.4154C143.153 74.5844 145.615 72.059 147.383 68.839C149.214 65.619 150.129 61.9571 150.129 57.8532C150.129 53.7493 149.214 50.0874 147.383 46.8674C145.615 43.6474 143.153 41.1535 139.996 39.3857C136.839 37.5547 133.303 36.6392 129.389 36.6392C125.474 36.6392 121.939 37.5547 118.782 39.3857C115.625 41.1535 113.131 43.6474 111.3 46.8674C109.532 50.0874 108.648 53.7493 108.648 57.8532C108.648 61.9571 109.532 65.619 111.3 68.839C113.131 72.059 115.625 74.5844 118.782 76.4154C121.939 78.1832 125.474 79.0671 129.389 79.0671ZM173.592 37.018V54.5385H204.277V66.8502H173.592V91H158.25V24.7064H208.349V37.018H173.592ZM251.125 78.6883V91H199.795V24.7064H249.894V37.018H215.042V51.4132H245.821V63.3461H215.042V78.6883H251.125ZM244.391 24.7064H259.733V78.4989H292.975V91H244.391V24.7064Z" fill="#7D00A9"/>
<path d="M287.984 64.776V69H271.056V65.64L279.696 57.48C280.613 56.6053 281.232 55.8587 281.552 55.24C281.872 54.6 282.032 53.9707 282.032 53.352C282.032 52.456 281.723 51.7733 281.104 51.304C280.507 50.8133 279.621 50.568 278.448 50.568C277.467 50.568 276.581 50.76 275.792 51.144C275.003 51.5067 274.341 52.0613 273.808 52.808L270.032 50.376C270.907 49.0747 272.112 48.0613 273.648 47.336C275.184 46.5893 276.944 46.216 278.928 46.216C280.592 46.216 282.043 46.4933 283.28 47.048C284.539 47.5813 285.509 48.3493 286.192 49.352C286.896 50.3333 287.248 51.496 287.248 52.84C287.248 54.056 286.992 55.1973 286.48 56.264C285.968 57.3307 284.976 58.5467 283.504 59.912L278.352 64.776H287.984ZM292.58 69.256C291.705 69.256 290.969 68.9573 290.372 68.36C289.774 67.7627 289.476 67.016 289.476 66.12C289.476 65.2027 289.774 64.4667 290.372 63.912C290.969 63.336 291.705 63.048 292.58 63.048C293.454 63.048 294.19 63.336 294.788 63.912C295.385 64.4667 295.684 65.2027 295.684 66.12C295.684 67.016 295.385 67.7627 294.788 68.36C294.19 68.9573 293.454 69.256 292.58 69.256ZM306.404 69.384C304.548 69.384 302.895 68.9253 301.444 68.008C299.994 67.0907 298.852 65.768 298.02 64.04C297.21 62.2907 296.804 60.2107 296.804 57.8C296.804 55.3893 297.21 53.32 298.02 51.592C298.852 49.8427 299.994 48.5093 301.444 47.592C302.895 46.6747 304.548 46.216 306.404 46.216C308.26 46.216 309.914 46.6747 311.364 47.592C312.815 48.5093 313.946 49.8427 314.756 51.592C315.588 53.32 316.004 55.3893 316.004 57.8C316.004 60.2107 315.588 62.2907 314.756 64.04C313.946 65.768 312.815 67.0907 311.364 68.008C309.914 68.9253 308.26 69.384 306.404 69.384ZM306.404 65C307.77 65 308.836 64.4133 309.604 63.24C310.394 62.0667 310.788 60.2533 310.788 57.8C310.788 55.3467 310.394 53.5333 309.604 52.36C308.836 51.1867 307.77 50.6 306.404 50.6C305.06 50.6 303.994 51.1867 303.204 52.36C302.436 53.5333 302.052 55.3467 302.052 57.8C302.052 60.2533 302.436 62.0667 303.204 63.24C303.994 64.4133 305.06 65 306.404 65Z" fill="black"/>
<g filter="url(#filter0_d_4_23)">
<circle cx="68" cy="610" r="226" fill="url(#paint0_linear_4_23)"/>
</g>
<g filter="url(#filter1_d_4_23)">
<ellipse cx="331" cy="570.5" rx="199" ry="199.5" fill="url(#paint1_linear_4_23)"/>
</g>
</svg>
