<svg width="247" height="70" viewBox="0 0 247 70" fill="none" xmlns="http://www.w3.org/2000/svg">
<path d="M29.5562 1.70636C35.4279 1.70636 40.5104 2.68498 44.8037 4.64222C49.1602 6.59946 52.5064 9.37748 54.8425 12.9763C57.1786 16.5751 58.3466 20.8368 58.3466 25.7615C58.3466 30.623 57.1786 34.8847 54.8425 38.5467C52.5064 42.1455 49.1602 44.9235 44.8037 46.8807C40.5104 48.7748 35.4279 49.7219 29.5562 49.7219H16.2028V68H0.860532V1.70636H29.5562ZM28.7039 37.2208C33.3128 37.2208 36.8169 36.2422 39.2161 34.2849C41.6153 32.2646 42.8149 29.4234 42.8149 25.7615C42.8149 22.0364 41.6153 19.1953 39.2161 17.238C36.8169 15.2176 33.3128 14.2074 28.7039 14.2074H16.2028V37.2208H28.7039ZM83.3887 69.1365C76.5068 69.1365 70.2878 67.6527 64.7318 64.6853C59.2389 61.7179 54.914 57.6456 51.7572 52.4683C48.6635 47.228 47.1166 41.3563 47.1166 34.8532C47.1166 28.3501 48.6635 22.5099 51.7572 17.3327C54.914 12.0924 59.2389 7.98847 64.7318 5.02104C70.2878 2.05361 76.5068 0.569896 83.3887 0.569896C90.2706 0.569896 96.458 2.05361 101.951 5.02104C107.444 7.98847 111.769 12.0924 114.926 17.3327C118.082 22.5099 119.661 28.3501 119.661 34.8532C119.661 41.3563 118.082 47.228 114.926 52.4683C111.769 57.6456 107.444 61.7179 101.951 64.6853C96.458 67.6527 90.2706 69.1365 83.3887 69.1365ZM83.3887 56.0671C87.3032 56.0671 90.8389 55.1832 93.9957 53.4154C97.1525 51.5844 99.6149 49.059 101.383 45.839C103.214 42.619 104.129 38.9571 104.129 34.8532C104.129 30.7493 103.214 27.0874 101.383 23.8674C99.6149 20.6474 97.1525 18.1535 93.9957 16.3857C90.8389 14.5547 87.3032 13.6392 83.3887 13.6392C79.4742 13.6392 75.9386 14.5547 72.7817 16.3857C69.6249 18.1535 67.131 20.6474 65.3 23.8674C63.5322 27.0874 62.6483 30.7493 62.6483 34.8532C62.6483 38.9571 63.5322 42.619 65.3 45.839C67.131 49.059 69.6249 51.5844 72.7817 53.4154C75.9386 55.1832 79.4742 56.0671 83.3887 56.0671ZM127.592 14.018V31.5385H158.277V43.8502H127.592V68H112.25V1.70636H162.349V14.018H127.592ZM205.125 55.6883V68H153.795V1.70636H203.894V14.018H169.042V28.4132H199.821V40.3461H169.042V55.6883H205.125ZM198.391 1.70636H213.733V55.4989H246.975V68H198.391V1.70636Z" fill="#7D00A9"/>
</svg>
